<?xml version="1.0" encoding="utf-8"?>
<!-- Generator: Adobe Illustrator 22.0.0, SVG Export Plug-In . SVG Version: 6.00 Build 0)  -->
<svg version="1.1" id="Layer_1" xmlns="http://www.w3.org/2000/svg" xmlns:xlink="http://www.w3.org/1999/xlink" x="0px" y="0px"
	 viewBox="0 0 24 24" style="enable-background:new 0 0 24 24;" xml:space="preserve">
<style type="text/css">
	.st0{fill:#0868AC;}
</style>
<g>
	<path class="st0" d="M3.8713,7.21331c-1.64876,2.36961-1.44351,5.45291-0.18403,7.97097
		c0.0299,0.0604,0.06129,0.11974,0.09224,0.17909l0.0589,0.11347l0.03678,0.06533l0.06563,0.1175
		c0.03917,0.06892,0.07923,0.13753,0.12019,0.20615l0.06862,0.11302c0.04545,0.0734,0.09194,0.1459,0.13948,0.21826l0.0595,0.09179
		c0.06563,0.09792,0.13275,0.19568,0.20211,0.29166l0.00583,0.00747l0.03408,0.04604
		c0.05995,0.08267,0.12169,0.16429,0.18418,0.24502l0.06937,0.0882c0.05576,0.07011,0.11242,0.13977,0.17012,0.20914
		l0.06503,0.07774c0.07744,0.09119,0.15652,0.18193,0.2371,0.27088l0.00493,0.00493l0.00912,0.01016
		c0.07878,0.08596,0.15936,0.16997,0.24098,0.25399l0.07729,0.07789c0.06324,0.06368,0.12752,0.12632,0.1924,0.18866
		l0.07878,0.07475c0.08671,0.08177,0.17431,0.1619,0.26371,0.24024l0.00419,0.00329l0.04589,0.03917
		c0.07878,0.06817,0.15891,0.13589,0.23964,0.20226l0.09926,0.07908c0.06593,0.05292,0.1326,0.10494,0.19972,0.15607
		l0.10674,0.08117c0.07415,0.05457,0.14875,0.10823,0.22409,0.1607l0.08162,0.05786l0.02242,0.016
		c0.07146,0.04918,0.14456,0.09657,0.21766,0.14396L7.49905,19.378c0.11212,0.07086,0.22573,0.14097,0.34069,0.20869
		l0.09418,0.05307c0.08446,0.04873,0.16952,0.09657,0.25563,0.14336c0.04664,0.02511,0.09448,0.04889,0.14142,0.07295
		c0.06084,0.03184,0.12124,0.06413,0.18313,0.09508l0.04231,0.02048l0.0749,0.03618c0.09582,0.04575,0.1924,0.09074,0.29002,0.1341
		l0.06129,0.02751c0.11182,0.04889,0.22454,0.09583,0.3383,0.14067l0.08237,0.03244
		c0.10524,0.04051,0.21198,0.08058,0.31917,0.11825l0.04006,0.0139c0.11765,0.04111,0.23635,0.07923,0.35594,0.11646
		l0.08596,0.02571c0.12169,0.03663,0.24203,0.08043,0.36745,0.1036c7.97381,1.45412,10.29006-4.7917,10.29006-4.7917
		c-1.94535,2.53436-5.39834,3.20289-8.67,2.45856c-0.12393-0.02795-0.24412-0.06667-0.36506-0.1024l-0.09104-0.02765
		c-0.1181-0.03618-0.23515-0.0743-0.35161-0.11436l-0.04829-0.01749c-0.10435-0.03663-0.20735-0.07534-0.31005-0.11496
		l-0.087-0.03423c-0.11242-0.0444-0.22424-0.09074-0.33471-0.13918l-0.06682-0.0296
		c-0.09493-0.04305-0.18881-0.08641-0.28239-0.1314l-0.08162-0.03917c-0.0734-0.03573-0.14605-0.0737-0.21841-0.11107
		c-0.04844-0.02556-0.09777-0.04963-0.14576-0.07624c-0.0885-0.04739-0.17521-0.09657-0.26176-0.1468l-0.08835-0.04933
		c-0.11496-0.06757-0.22843-0.13768-0.34084-0.20884l-0.09194-0.06129c-0.08147-0.05247-0.16265-0.10599-0.24263-0.1613
		l-0.07804-0.05486c-0.07714-0.05456-0.15353-0.10973-0.22932-0.16579l-0.10151-0.07684
		c-0.06951-0.05307-0.13858-0.10659-0.2069-0.16175l-0.09224-0.074c-0.08701-0.07161-0.17281-0.14336-0.25773-0.21721
		l-0.02825-0.02377c-0.09179-0.08058-0.18178-0.16325-0.27088-0.24622l-0.07639-0.0734
		c-0.06593-0.06279-0.13081-0.12602-0.19464-0.1909l-0.07624-0.07609c-0.08117-0.08312-0.16085-0.16728-0.23889-0.25264
		l-0.01181-0.01256c-0.08252-0.09029-0.16325-0.18253-0.24233-0.27567L6.6151,14.84492
		c-0.0589-0.07101-0.11735-0.14292-0.17446-0.21557L6.3768,14.54983c-0.06862-0.0891-0.13574-0.17775-0.20137-0.26819
		c-1.81634-2.4777-2.46903-5.89481-1.0173-8.70109 M8.9895,5.21668c-1.19251,1.71588-1.12763,4.01299-0.19748,5.82769
		c0.15592,0.30422,0.33128,0.59947,0.52741,0.88036c0.17864,0.25608,0.37672,0.56075,0.61382,0.76645
		c0.08596,0.09463,0.1758,0.18702,0.26759,0.27776l0.07056,0.06951c0.0891,0.08641,0.17954,0.17132,0.27327,0.25384l0.01106,0.00957
		l0.00269,0.00269c0.1036,0.09089,0.21049,0.17805,0.31917,0.26415l0.0725,0.05651c0.10898,0.08357,0.22005,0.16549,0.33382,0.24382
		l0.00972,0.00733c0.05023,0.03468,0.10136,0.06697,0.15233,0.10046l0.07221,0.04769c0.08132,0.05217,0.1637,0.103,0.24741,0.15174
		l0.03513,0.02033c0.0722,0.04156,0.14531,0.08252,0.21871,0.12229l0.07789,0.04051
		c0.05068,0.02646,0.10136,0.05352,0.15293,0.07923l0.02317,0.01046c0.10509,0.05173,0.21109,0.10166,0.31932,0.14875l0.07056,0.029
		c0.08656,0.03678,0.17401,0.07265,0.26161,0.10614l0.11212,0.04111c0.07968,0.0296,0.15966,0.05651,0.24024,0.08357
		l0.10868,0.03483c0.11466,0.03558,0.22798,0.08058,0.34742,0.10046c6.15657,1.01999,7.57795-3.72028,7.57795-3.72028
		c-1.28115,1.84519-3.76244,2.72571-6.41011,2.03834c-0.11765-0.03095-0.23351-0.06443-0.34877-0.10076l-0.10479-0.03393
		c-0.08192-0.02646-0.16325-0.05456-0.24382-0.08401l-0.11003-0.04096c-0.0885-0.03408-0.17581-0.06907-0.26251-0.10584
		l-0.07071-0.0299c-0.10868-0.04724-0.21572-0.09717-0.32111-0.14934c-0.05427-0.02646-0.10764-0.05442-0.16115-0.08192
		l-0.09299-0.04784c-0.06847-0.03707-0.13664-0.07564-0.20376-0.11511l-0.04873-0.02766
		c-0.08342-0.04858-0.16549-0.09881-0.24681-0.15069l-0.07445-0.04963c-0.05367-0.03468-0.10719-0.07011-0.15981-0.10569
		c-0.11347-0.07833-0.22394-0.16026-0.33277-0.24337l-0.0749-0.05905c-1.15887-0.9149-2.07765-2.16556-2.51432-3.5835
		C9.07202,6.83136,9.17068,5.18065,9.96375,3.8409 M13.29415,3.72504c-0.70292,1.03449-0.77198,2.31923-0.28419,3.46166
		c0.51441,1.21284,1.56833,2.16406,2.79851,2.61538c0.05068,0.01869,0.10151,0.03543,0.15278,0.05292l0.06742,0.02138
		c0.07251,0.02272,0.14441,0.04918,0.21931,0.06339c3.39947,0.65687,4.32155-1.74443,4.56686-2.09798
		c-0.80756,1.16291-2.16496,1.44201-3.83046,1.03778c-0.13155-0.03184-0.27611-0.07938-0.40288-0.12438
		c-0.16265-0.058-0.3229-0.12408-0.47853-0.19868c-0.2957-0.14217-0.57764-0.31453-0.83895-0.51186
		C13.77372,6.91373,12.84791,4.75669,13.82036,3"/>
</g>
</svg>
