<?xml version="1.0" encoding="utf-8"?>
<!-- Generator: Adobe Illustrator 22.0.0, SVG Export Plug-In . SVG Version: 6.00 Build 0)  -->
<svg version="1.1" id="Layer_1" xmlns="http://www.w3.org/2000/svg" xmlns:xlink="http://www.w3.org/1999/xlink" x="0px" y="0px"
	 viewBox="0 0 185 185" style="enable-background:new 0 0 185 185;" xml:space="preserve">
<style type="text/css">
	.st0{fill:#424A60;}
	.st1{fill:#333333;}
	.st2{fill:#5C5C5C;}
	.st3{fill:#556080;}
	.st4{fill:#B8B8B8;}
	.st5{fill:#7D7D7D;}
	.st6{fill:#7383BF;}
</style>
<g>
	<path class="st0" d="M146.2,51L146.2,51c-1.60001-10-25.1-17.9-53.7-17.9S40.4,41,38.8,51l0,0h-0.1v1.1v25.8V79v1.1v24.7v1.1v1.1
		v27h0.1c1.6,10,25.1,17.89999,53.7,17.89999S144.60001,144,146.2,134H146.3v-26.9V106v-1.1V80.2V79v-1.1V52.1V51H146.2z"/>
	<g>
		<path class="st1" d="M92.5,125c-29.7,0-53.8-8.5-53.8-19.1v27.99999h0.1c1.6,10,25.1,17.89999,53.7,17.89999
			s52.10001-7.89999,53.7-17.89999H146.3v-28C146.3,116.5,122.2,125,92.5,125z"/>
		<path class="st0" d="M38.7,104.8v1.1c0-0.4,0-0.7,0.1-1.1H38.7z"/>
		<path class="st0" d="M146.2,104.8c0.10001,0.4,0.10001,0.7,0.10001,1.1v-1.1H146.2z"/>
	</g>
	<g>
		<path class="st2" d="M92.5,98.1c-29.7,0-53.8-8.5-53.8-19.1v28h0.1c1.6,10,25.1,17.9,53.7,17.9s52.10001-7.9,53.7-17.9H146.3V79
			C146.3,89.6,122.2,98.1,92.5,98.1z"/>
		<path class="st3" d="M38.7,77.9V79c0-0.4,0-0.7,0.1-1.1H38.7z"/>
		<path class="st3" d="M146.2,77.9C146.3,78.3,146.3,78.6,146.3,79v-1.1H146.2z"/>
	</g>
	<ellipse class="st4" cx="92.5" cy="52.1" rx="53.8" ry="19.1"/>
	<g>
		<path class="st5" d="M92.5,71.2c-29.7,0-53.8-8.5-53.8-19.1v28h0.1C40.4,90.1,63.9,98,92.5,98s52.10001-7.9,53.7-17.9H146.3v-28
			C146.3,62.7,122.2,71.2,92.5,71.2z"/>
		<path class="st6" d="M38.7,51v1.1c0-0.4,0-0.7,0.1-1.1H38.7z"/>
		<path class="st6" d="M146.2,51C146.3,51.4,146.3,51.7,146.3,52.1V51H146.2z"/>
	</g>
</g>
</svg>
